# Blender 5.1.2
# www.blender.org
mtllib maison.mtl
o Cube
v 5.397621 -1.046557 2.854360
v 5.397621 1.619201 2.854360
v 0.339354 -1.046557 2.854360
v 0.339354 1.619201 2.854360
v 5.397621 -1.046557 0.168854
v 5.397621 1.619201 0.168854
v 0.339354 -1.046557 0.168854
v 0.339354 1.619201 0.168854
vn -0.0000 -0.0000 1.0000
vn -1.0000 -0.0000 -0.0000
vn -0.0000 -0.0000 -1.0000
vn 1.0000 -0.0000 -0.0000
vn -0.0000 -1.0000 -0.0000
vn -0.0000 1.0000 -0.0000
vt 0.625000 0.000000
vt 0.375000 0.250000
vt 0.375000 0.000000
vt 0.625000 0.250000
vt 0.375000 0.500000
vt 0.625000 0.500000
vt 0.375000 0.750000
vt 0.625000 0.750000
vt 0.375000 1.000000
vt 0.125000 0.750000
vt 0.125000 0.500000
vt 0.875000 0.500000
vt 0.625000 1.000000
vt 0.875000 0.750000
s 0
f 2/1/1 3/2/1 1/3/1
f 4/4/2 7/5/2 3/2/2
f 8/6/3 5/7/3 7/5/3
f 6/8/4 1/9/4 5/7/4
f 7/5/5 1/10/5 3/11/5
f 4/12/6 6/8/6 8/6/6
f 2/1/1 4/4/1 3/2/1
f 4/4/2 8/6/2 7/5/2
f 6/8/4 2/13/4 1/9/4
f 8/6/3 6/8/3 5/7/3
f 7/5/5 5/7/5 1/10/5
f 4/12/6 2/14/6 6/8/6
o Circle
v 0.102612 3.102643 1.575928
v 0.102612 1.599454 3.577290
v 0.102612 1.599453 -0.426837
v 2.187333 3.102643 1.575928
v 2.187333 1.599453 3.577290
v 2.187333 1.599453 -0.426837
v 4.386540 3.102643 1.575928
v 4.386540 1.599453 3.577290
v 4.386540 1.599453 -0.426837
v 5.809646 3.102643 1.575928
v 5.809646 1.599453 3.577290
v 5.809646 1.599453 -0.426837
vn -1.0000 -0.0000 -0.0000
vn -0.0000 0.7998 -0.6003
vn -0.0000 -1.0000 -0.0000
vn -0.0000 0.7996 0.6006
vn 1.0000 -0.0000 -0.0000
vt 0.000000 0.000000
s 0
f 11/15/7 10/15/7 9/15/7
f 12/15/8 17/15/8 14/15/8
f 9/15/8 14/15/8 11/15/8
f 11/15/9 13/15/9 10/15/9
f 10/15/10 12/15/10 9/15/10
f 15/15/8 20/15/8 17/15/8
f 14/15/9 16/15/9 13/15/9
f 13/15/10 15/15/10 12/15/10
f 20/15/11 18/15/11 19/15/11
f 17/15/9 19/15/9 16/15/9
f 16/15/10 18/15/10 15/15/10
f 12/15/8 15/15/8 17/15/8
f 9/15/8 12/15/8 14/15/8
f 15/15/8 18/15/8 20/15/8
f 11/15/9 14/15/9 13/15/9
f 10/15/10 13/15/10 12/15/10
f 14/15/9 17/15/9 16/15/9
f 13/15/10 16/15/10 15/15/10
f 17/15/9 20/15/9 19/15/9
f 16/15/10 19/15/10 18/15/10
