# Blender 5.1.2
# www.blender.org
mtllib polet.mtl
o Icosphere
v 0.210267 -0.964097 0.000000
v 0.784936 -0.257748 0.525725
v -0.187462 -0.491055 0.850649
v -0.788445 -0.635244 0.000000
v -0.187462 -0.491055 -0.850649
v 0.784936 -0.257748 -0.525725
v 0.141379 0.507668 0.850649
v -0.831019 0.274360 0.525725
v -0.831019 0.274360 -0.525725
v 0.141379 0.507668 -0.850649
v 0.742362 0.651857 -0.000000
v -0.256349 0.980709 -0.000000
v -0.096033 -0.685387 0.716563
v 0.017451 -0.856775 0.499995
v 0.127324 -0.951037 0.238853
v 0.400363 -0.885527 0.147618
v 0.589008 -0.719641 0.309011
v 0.723088 -0.488855 0.442856
v 0.611411 -0.356027 0.681712
v 0.355232 -0.441593 0.809012
v 0.065328 -0.487049 0.864184
v 0.884450 -0.290516 -0.295238
v 0.926790 -0.304458 0.000000
v 0.884450 -0.290516 0.295238
v 0.400363 -0.885527 -0.147618
v 0.589008 -0.719641 -0.309011
v 0.723088 -0.488855 -0.442856
v -0.602287 -0.806847 0.000000
v -0.335799 -0.941527 0.000000
v -0.041427 -0.991525 0.000000
v -0.376465 -0.593048 0.716565
v -0.569580 -0.663481 0.499997
v -0.713967 -0.674021 0.238853
v -0.096033 -0.685387 -0.716563
v 0.017451 -0.856775 -0.499995
v 0.127324 -0.951037 -0.238853
v -0.713967 -0.674021 -0.238853
v -0.569580 -0.663481 -0.499997
v -0.376465 -0.593048 -0.716565
v 0.065328 -0.487049 -0.864184
v 0.355232 -0.441593 -0.809012
v 0.611411 -0.356027 -0.681712
v 0.848589 0.475713 0.147618
v 0.901770 0.230196 0.309013
v 0.872499 -0.035106 0.442858
v 0.872499 -0.035106 -0.442858
v 0.901770 0.230196 -0.309013
v 0.848589 0.475713 -0.147618
v 0.069295 0.288740 0.955422
v -0.023041 0.008306 1.000000
v -0.115377 -0.272127 0.955422
v 0.703750 -0.075595 0.681715
v 0.548523 0.145441 0.809017
v 0.342337 0.354251 0.864188
v -0.918582 0.051718 0.442858
v -0.947853 -0.213583 0.309013
v -0.894672 -0.459101 0.147618
v -0.388420 -0.337639 0.864188
v -0.594606 -0.128829 0.809017
v -0.749832 0.092207 0.681715
v -0.749832 0.092207 -0.681715
v -0.594606 -0.128829 -0.809017
v -0.388420 -0.337639 -0.864188
v -0.894672 -0.459101 -0.147618
v -0.947853 -0.213583 -0.309013
v -0.918582 0.051718 -0.442858
v 0.342337 0.354251 -0.864188
v 0.548523 0.145441 -0.809017
v 0.703750 -0.075595 -0.681715
v -0.115377 -0.272127 -0.955422
v -0.023041 0.008306 -1.000000
v 0.069295 0.288740 -0.955422
v 0.667884 0.690634 0.238853
v 0.523497 0.680094 0.499997
v 0.330383 0.609660 0.716565
v -0.111411 0.503661 0.864184
v -0.401315 0.458205 0.809012
v -0.657493 0.372640 0.681712
v -0.948856 0.343139 0.239432
v -1.155728 0.872691 -0.000000
v -0.948856 0.343139 -0.239432
v -0.657493 0.372640 -0.681712
v -0.401315 0.458205 -0.809012
v -0.111411 0.503661 -0.864184
v 0.330383 0.609660 -0.716565
v 0.523497 0.680094 -0.499997
v 0.667884 0.690634 -0.238853
v -0.173407 0.967649 0.238853
v -0.063534 0.873387 0.499995
v 0.049950 0.701999 0.716563
v 0.556204 0.823459 -0.000000
v 0.289716 0.958139 -0.000000
v -0.004656 1.008137 -0.000000
v -0.446445 0.902139 0.147618
v -0.635091 0.736253 0.309011
v -0.769171 0.505467 0.442856
v -0.446445 0.902139 -0.147618
v -0.635091 0.736253 -0.309011
v -0.769171 0.505467 -0.442856
v -0.173407 0.967649 -0.238853
v -0.063534 0.873387 -0.499995
v 0.049950 0.701999 -0.716563
v 0.120097 0.962463 -0.262863
v 0.428716 0.860842 -0.262864
v 0.243002 0.816286 -0.525728
v -0.366102 0.845810 -0.425319
v -0.243199 0.699633 -0.688185
v -0.543685 0.627537 -0.587778
v -0.666587 0.773714 -0.000000
v -0.844170 0.617940 -0.162457
v -0.844170 0.617940 0.162457
v -0.366102 0.845810 0.425319
v -0.543685 0.627537 0.587778
v -0.243199 0.699633 0.688185
v 0.120097 0.962463 0.262863
v 0.243002 0.816286 0.525728
v 0.428716 0.860842 0.262864
v 0.750494 0.478139 -0.425323
v 0.763651 0.197055 -0.587783
v 0.564781 0.433582 -0.688190
v -0.221912 0.244832 -0.951055
v -0.323530 -0.063791 -0.951056
v -0.522401 0.172736 -0.850648
v -1.062084 0.011113 -0.162458
v -0.995444 -0.225001 0.000000
v -1.062084 0.011113 0.162458
v -0.522401 0.172736 0.850648
v -0.323530 -0.063791 0.951056
v -0.221912 0.244832 0.951055
v 0.564781 0.433582 0.688190
v 0.763651 0.197055 0.587783
v 0.750494 0.478139 0.425323
v 0.277448 0.080402 -0.951056
v 0.476318 -0.156125 -0.850648
v 0.175830 -0.228221 -0.951055
v -0.809733 -0.180444 -0.587783
v -0.610862 -0.416971 -0.688191
v -0.796576 -0.461528 -0.425324
v -0.809733 -0.180444 0.587783
v -0.796576 -0.461528 0.425324
v -0.610862 -0.416971 0.688191
v 0.277448 0.080402 0.951056
v 0.175830 -0.228221 0.951055
v 0.476318 -0.156125 0.850648
v 0.949362 0.241614 -0.000000
v 0.962517 -0.039470 0.162458
v 0.962517 -0.039470 -0.162458
v 0.497603 -0.610923 -0.587779
v 0.320021 -0.829196 -0.425321
v 0.197117 -0.683020 -0.688185
v -0.289086 -0.799673 -0.525729
v -0.166181 -0.945850 -0.262864
v -0.474800 -0.844230 -0.262864
v -0.474800 -0.844230 0.262864
v -0.166181 -0.945850 0.262864
v -0.289086 -0.799673 0.525729
v 0.798088 -0.538827 -0.162458
v 0.798088 -0.538827 0.162458
v 0.620505 -0.757101 0.000000
v 0.197117 -0.683020 0.688185
v 0.320021 -0.829196 0.425321
v 0.497603 -0.610923 0.587779
v -1.104445 0.630942 -0.038817
v -1.104445 0.630942 0.038817
v -1.073013 0.701671 0.070543
v -1.056825 0.779538 0.038817
v -1.056825 0.779538 -0.038817
v -1.073013 0.701671 -0.070543
v 0.002426 -1.449897 0.432999
v 0.002426 -1.449897 -0.432999
v 0.055444 -1.340790 -0.302428
v 0.055444 -1.340790 0.302428
v 0.252417 -1.448362 0.417374
v 0.252417 -1.448362 -0.417374
v 0.305435 -1.339255 -0.286803
v 0.305435 -1.339255 0.286803
v 0.306775 -1.448362 0.286803
v 0.306775 -1.448362 -0.286803
v -0.089937 -1.449897 0.314433
v -0.089937 -1.449897 -0.314433
v -1.055403 0.335754 -0.097419
v -0.940046 0.674093 0.097419
v -0.984049 0.527564 -0.169440
v -0.984049 0.527564 0.169440
v -1.055403 0.335754 0.097419
v -0.940046 0.674093 -0.097419
v 1.049689 0.101072 0.081229
v 0.925566 0.235905 -0.154506
v 0.898975 0.358664 -0.073809
v 1.049689 0.101072 -0.081229
v 0.898975 0.358664 0.073809
v 0.925566 0.235905 0.154506
v 1.056267 -0.039470 0.000000
v 0.944653 -0.171964 -0.081229
v 0.932144 0.095363 0.235735
v 0.932144 0.095363 -0.235735
v 0.944653 -0.171964 0.081229
v 1.274778 -0.029243 0.000000
v 1.158945 0.106186 -0.081229
v 1.158945 0.106186 0.081229
v 0.892500 0.361250 0.295000
v 0.892500 0.451250 0.295000
v 0.892500 0.361250 0.205000
v 0.892500 0.451250 0.205000
v 0.982500 0.361250 0.295000
v 0.982500 0.451250 0.295000
v 0.982500 0.361250 0.205000
v 0.982500 0.451250 0.205000
v 0.892500 0.361250 -0.205000
v 0.892500 0.451250 -0.205000
v 0.892500 0.361250 -0.295000
v 0.892500 0.451250 -0.295000
v 0.982500 0.361250 -0.205000
v 0.982500 0.451250 -0.205000
v 0.982500 0.361250 -0.295000
v 0.982500 0.451250 -0.295000
v 0.005158 -0.887331 0.416950
v 0.060095 -0.934462 0.286378
v -0.086658 -0.931869 0.298384
v 0.005158 -0.887331 -0.416950
v -0.086658 -0.931869 -0.298384
v 0.060095 -0.934462 -0.286378
vn 0.2773 -0.9493 0.1482
vn 0.8324 -0.3705 0.4121
vn 0.1079 -0.9899 0.0916
vn 0.1079 -0.9899 -0.0916
vn 0.2773 -0.9493 -0.1482
vn 0.8897 -0.1965 0.4121
vn -0.0419 -0.4201 0.9065
vn -0.7870 -0.5988 0.1482
vn -0.3160 -0.4858 -0.8149
vn 0.7203 -0.2372 -0.6519
vn 0.8204 -0.1141 0.5603
vn -0.2159 -0.3628 0.9065
vn -0.8563 -0.5164 -0.0000
vn -0.2159 -0.3628 -0.9065
vn 0.8204 -0.1141 -0.5603
vn 0.2039 0.6192 0.7583
vn -0.7277 0.3956 0.5603
vn -0.8227 0.3738 -0.4284
vn 0.0345 0.5785 -0.8149
vn 0.6749 0.7322 -0.0916
vn -0.1079 0.9899 -0.0916
vn 0.1667 0.9817 -0.0914
vn 0.4492 0.8888 -0.0915
vn 0.0035 0.9855 -0.1696
vn -0.0115 0.9390 -0.3438
vn 0.3075 0.9338 -0.1830
vn 0.2922 0.8873 -0.3568
vn 0.1295 0.8911 -0.4350
vn 0.1009 0.8052 -0.5843
vn 0.5827 0.7948 -0.1696
vn 0.5671 0.7484 -0.3438
vn 0.4253 0.7937 -0.4350
vn 0.3972 0.7077 -0.5843
vn 0.2342 0.7112 -0.6628
vn 0.2039 0.6192 -0.7583
vn -0.2773 0.9493 -0.1482
vn -0.1807 0.8984 -0.4003
vn -0.0682 0.7646 -0.6409
vn -0.3101 0.9103 -0.2743
vn -0.4691 0.8292 -0.3039
vn -0.2091 0.8099 -0.5481
vn -0.3678 0.7290 -0.5773
vn -0.4971 0.7408 -0.4519
vn -0.6316 0.6294 -0.4526
vn -0.0794 0.6360 -0.7676
vn -0.2387 0.5551 -0.7968
vn -0.3793 0.6006 -0.7038
vn -0.5137 0.4891 -0.7049
vn -0.6433 0.5007 -0.5792
vn -0.7277 0.3956 -0.5603
vn -0.3820 0.9242 -0.0000
vn -0.5703 0.8065 -0.1559
vn -0.5704 0.8064 -0.1559
vn -0.5737 0.8041 -0.1560
vn -0.6529 0.6263 -0.4259
vn -0.5039 0.8638 -0.0000
vn -0.5704 0.8064 0.1559
vn -0.5703 0.8065 0.1559
vn -0.5737 0.8041 0.1560
vn -0.5670 0.8089 -0.1558
vn -0.6594 0.7518 -0.0000
vn -0.5670 0.8089 0.1558
vn -0.6529 0.6263 0.4259
vn -0.8198 0.4210 -0.3882
vn -0.2075 0.3904 -0.8970
vn -0.2075 0.3904 -0.8969
vn -0.2074 0.3904 -0.8970
vn 0.5054 0.8629 -0.0000
vn -0.0068 0.3785 0.9256
vn -0.8198 0.4210 0.3882
vn -0.8227 0.3738 0.4284
vn -0.2773 0.9493 0.1482
vn -0.4691 0.8292 0.3039
vn -0.6316 0.6294 0.4526
vn -0.3101 0.9103 0.2743
vn -0.1807 0.8984 0.4003
vn -0.4971 0.7408 0.4519
vn -0.3678 0.7290 0.5773
vn -0.2091 0.8099 0.5481
vn -0.0682 0.7646 0.6409
vn -0.6433 0.5007 0.5792
vn -0.5137 0.4891 0.7049
vn -0.3793 0.6006 0.7038
vn -0.2387 0.5551 0.7968
vn -0.0794 0.6360 0.7676
vn 0.0345 0.5785 0.8149
vn -0.1079 0.9899 0.0916
vn -0.0115 0.9390 0.3438
vn 0.1009 0.8052 0.5843
vn 0.0035 0.9855 0.1696
vn 0.1667 0.9817 0.0914
vn 0.1295 0.8911 0.4350
vn 0.2922 0.8873 0.3568
vn 0.3075 0.9338 0.1830
vn 0.4492 0.8888 0.0915
vn 0.2342 0.7112 0.6628
vn 0.3972 0.7077 0.5843
vn 0.4253 0.7937 0.4350
vn 0.5671 0.7484 0.3438
vn 0.5827 0.7948 0.1696
vn 0.6749 0.7322 0.0916
vn 0.7870 0.5988 -0.1482
vn 0.8700 0.3882 -0.3039
vn 0.8820 0.1310 -0.4526
vn 0.7902 0.5480 -0.2744
vn 0.6791 0.6153 -0.4003
vn 0.8399 0.3005 -0.4519
vn 0.7290 0.3678 -0.5773
vn 0.6493 0.5272 -0.5481
vn 0.5091 0.5745 -0.6409
vn 0.8149 0.0205 -0.5792
vn 0.7038 0.0882 -0.7049
vn 0.6620 0.2578 -0.7038
vn 0.5218 0.3047 -0.7968
vn 0.4417 0.4644 -0.7676
vn 0.3160 0.4858 -0.8149
vn 0.0419 0.4201 -0.9065
vn -0.0404 0.1698 -0.9846
vn -0.1334 -0.1126 -0.9846
vn -0.0657 0.3426 -0.9372
vn -0.2313 0.3969 -0.8883
vn -0.1739 0.0573 -0.9831
vn -0.3389 0.1116 -0.9342
vn -0.3645 0.2839 -0.8869
vn -0.5063 0.3309 -0.7964
vn -0.2564 -0.2365 -0.9372
vn -0.4218 -0.1818 -0.8883
vn -0.4619 -0.0118 -0.8869
vn -0.6038 0.0346 -0.7964
vn -0.6296 0.2073 -0.7488
vn -0.7203 0.2372 -0.6519
vn -0.8892 0.1959 -0.4135
vn -0.8890 0.1962 -0.4136
vn -0.8893 0.1960 -0.4131
vn -0.8732 -0.1393 -0.4670
vn -0.9392 -0.3060 -0.1559
vn -0.8832 0.2032 -0.4226
vn -0.7960 0.1346 -0.5902
vn -0.9178 -0.3656 -0.1549
vn -0.9624 -0.2716 -0.0000
vn -0.9998 0.0206 -0.0000
vn -0.7960 0.1346 0.5902
vn -0.9185 -0.3954 -0.0000
vn -0.9392 -0.3060 0.1559
vn -0.9178 -0.3656 0.1549
vn -0.8732 -0.1393 0.4670
vn -0.8832 0.2032 0.4226
vn -0.8892 0.1959 0.4135
vn -0.8890 0.1962 0.4136
vn -0.8893 0.1960 0.4131
vn -0.7203 0.2372 0.6519
vn -0.6038 0.0346 0.7964
vn -0.4218 -0.1818 0.8883
vn -0.6296 0.2073 0.7488
vn -0.5063 0.3309 0.7964
vn -0.4619 -0.0118 0.8869
vn -0.3389 0.1116 0.9342
vn -0.3645 0.2839 0.8869
vn -0.2313 0.3969 0.8883
vn -0.2564 -0.2365 0.9372
vn -0.1334 -0.1126 0.9846
vn -0.1739 0.0573 0.9831
vn -0.0404 0.1698 0.9846
vn -0.0657 0.3426 0.9372
vn 0.0419 0.4201 0.9065
vn 0.3160 0.4858 0.8149
vn 0.5218 0.3047 0.7968
vn 0.7038 0.0882 0.7049
vn 0.4417 0.4644 0.7676
vn 0.5091 0.5745 0.6409
vn 0.6620 0.2578 0.7038
vn 0.7290 0.3678 0.5773
vn 0.6493 0.5272 0.5481
vn 0.6791 0.6153 0.4003
vn 0.8149 0.0205 0.5792
vn 0.8820 0.1310 0.4526
vn 0.8399 0.3005 0.4519
vn 0.8700 0.3882 0.3039
vn 0.7902 0.5480 0.2744
vn 0.7870 0.5988 0.1482
vn 0.2159 0.3628 -0.9065
vn 0.4218 0.1818 -0.8883
vn 0.6038 -0.0346 -0.7964
vn 0.2564 0.2365 -0.9372
vn 0.1334 0.1126 -0.9846
vn 0.4619 0.0118 -0.8869
vn 0.3389 -0.1116 -0.9342
vn 0.1739 -0.0573 -0.9831
vn 0.0404 -0.1698 -0.9846
vn 0.6296 -0.2073 -0.7488
vn 0.5063 -0.3309 -0.7964
vn 0.3645 -0.2839 -0.8869
vn 0.2313 -0.3969 -0.8883
vn 0.0657 -0.3426 -0.9372
vn -0.0419 -0.4201 -0.9065
vn -0.8204 0.1141 -0.5603
vn -0.7038 -0.0882 -0.7049
vn -0.5218 -0.3047 -0.7968
vn -0.8149 -0.0205 -0.5792
vn -0.8820 -0.1310 -0.4526
vn -0.6620 -0.2578 -0.7038
vn -0.7290 -0.3678 -0.5774
vn -0.8399 -0.3005 -0.4519
vn -0.8700 -0.3882 -0.3039
vn -0.4417 -0.4644 -0.7676
vn -0.5091 -0.5745 -0.6409
vn -0.6493 -0.5272 -0.5481
vn -0.6791 -0.6153 -0.4003
vn -0.7902 -0.5480 -0.2743
vn -0.7870 -0.5988 -0.1482
vn -0.8204 0.1141 0.5603
vn -0.8820 -0.1310 0.4526
vn -0.8700 -0.3882 0.3039
vn -0.8149 -0.0205 0.5792
vn -0.7038 -0.0882 0.7049
vn -0.8399 -0.3005 0.4519
vn -0.7290 -0.3678 0.5774
vn -0.6620 -0.2578 0.7038
vn -0.5218 -0.3047 0.7968
vn -0.7902 -0.5480 0.2743
vn -0.6791 -0.6153 0.4003
vn -0.6493 -0.5272 0.5481
vn -0.5091 -0.5745 0.6409
vn -0.4417 -0.4644 0.7676
vn -0.3160 -0.4858 0.8149
vn 0.2159 0.3628 0.9065
vn 0.1334 0.1126 0.9846
vn 0.0404 -0.1698 0.9846
vn 0.2564 0.2365 0.9372
vn 0.4218 0.1818 0.8883
vn 0.1739 -0.0573 0.9831
vn 0.3389 -0.1116 0.9342
vn 0.4619 0.0118 0.8869
vn 0.6038 -0.0346 0.7964
vn 0.0657 -0.3426 0.9372
vn 0.2313 -0.3969 0.8883
vn 0.3645 -0.2839 0.8869
vn 0.5063 -0.3309 0.7964
vn 0.6296 -0.2073 0.7488
vn 0.7203 -0.2372 0.6519
vn 0.8563 0.5164 -0.0000
vn 0.9910 -0.1336 -0.0000
vn 0.9512 0.0487 0.3046
vn 0.9392 0.3060 -0.1560
vn 0.9392 0.3060 -0.1559
vn 0.9392 0.3060 0.1560
vn 0.9392 0.3060 0.1559
vn 0.8406 -0.2410 0.4851
vn 0.7654 0.6279 -0.1411
vn 0.9512 0.0487 -0.3046
vn 0.9432 -0.1321 0.3049
vn 0.9639 -0.2211 0.1487
vn 0.7976 -0.3897 0.4603
vn 0.9639 -0.2211 -0.1487
vn 0.9432 -0.1321 -0.3049
vn 0.8897 -0.1965 -0.4121
vn 0.7277 -0.3956 -0.5603
vn 0.6316 -0.6294 -0.4526
vn 0.4691 -0.8292 -0.3039
vn 0.6433 -0.5007 -0.5792
vn 0.5137 -0.4891 -0.7049
vn 0.4971 -0.7407 -0.4519
vn 0.3678 -0.7290 -0.5773
vn 0.3793 -0.6006 -0.7038
vn 0.2387 -0.5551 -0.7968
vn 0.3101 -0.9103 -0.2744
vn 0.1807 -0.8984 -0.4003
vn 0.2091 -0.8098 -0.5481
vn 0.0682 -0.7646 -0.6409
vn 0.0794 -0.6360 -0.7676
vn -0.0345 -0.5785 -0.8149
vn -0.2039 -0.6192 -0.7583
vn -0.1009 -0.8052 -0.5843
vn 0.9236 0.0056 -0.3832
vn 0.9237 0.0057 -0.3831
vn -0.2342 -0.7112 -0.6628
vn -0.3972 -0.7077 -0.5843
vn -0.1295 -0.8911 -0.4350
vn -0.2922 -0.8873 -0.3568
vn -0.4253 -0.7937 -0.4350
vn -0.5672 -0.7484 -0.3438
vn -0.0035 -0.9855 -0.1696
vn -0.1667 -0.9817 -0.0915
vn -0.3075 -0.9338 -0.1830
vn -0.4492 -0.8888 -0.0914
vn -0.5827 -0.7948 -0.1696
vn -0.6749 -0.7322 -0.0916
vn -0.6749 -0.7322 0.0916
vn -0.4492 -0.8888 0.0914
vn -0.1667 -0.9817 0.0915
vn -0.5827 -0.7948 0.1696
vn -0.5672 -0.7484 0.3438
vn -0.3075 -0.9338 0.1830
vn -0.2922 -0.8873 0.3568
vn -0.4253 -0.7937 0.4350
vn -0.3972 -0.7077 0.5843
vn -0.0035 -0.9855 0.1696
vn -0.7916 0.0225 0.6106
vn -0.1295 -0.8911 0.4350
vn -0.1009 -0.8052 0.5843
vn -0.2342 -0.7112 0.6628
vn -0.2039 -0.6192 0.7583
vn 0.8324 -0.3705 -0.4121
vn 0.9066 -0.3948 -0.1487
vn 0.9066 -0.3948 0.1487
vn 0.8371 -0.4542 -0.3049
vn 0.7362 -0.6044 -0.3046
vn 0.8765 -0.4813 -0.0000
vn 0.7757 -0.6311 -0.0000
vn 0.7063 -0.6905 -0.1557
vn 0.5737 -0.8041 -0.1560
vn 0.8371 -0.4542 0.3049
vn 0.7362 -0.6044 0.3046
vn 0.7063 -0.6905 0.1557
vn 0.5737 -0.8041 0.1560
vn 0.5039 -0.8638 -0.0000
vn 0.3820 -0.9242 -0.0000
vn -0.0345 -0.5785 0.8149
vn 0.0682 -0.7646 0.6409
vn 0.1807 -0.8984 0.4003
vn 0.0794 -0.6360 0.7676
vn 0.2387 -0.5551 0.7968
vn 0.2091 -0.8098 0.5481
vn 0.3678 -0.7290 0.5773
vn 0.3793 -0.6006 0.7038
vn 0.5137 -0.4891 0.7049
vn 0.3101 -0.9103 0.2744
vn 0.4691 -0.8292 0.3039
vn 0.4971 -0.7407 0.4519
vn 0.6316 -0.6294 0.4526
vn 0.6433 -0.5007 0.5792
vn 0.7277 -0.3956 0.5603
vn -0.6799 -0.0266 -0.7328
vn -0.0068 0.3785 -0.9256
vn -0.9782 -0.2075 -0.0000
vn 0.6856 0.7280 -0.0000
vn -0.6799 -0.0266 0.7328
vn -0.0900 0.4377 0.8946
vn -0.0900 0.4378 0.8946
vn -0.7916 0.0225 -0.6106
vn -0.0686 -0.0261 0.9973
vn 0.9236 0.0056 0.3832
vn 0.9237 0.0057 0.3831
vn 0.9231 0.0113 0.3843
vn 0.9231 0.0113 -0.3843
vn 0.0359 0.7596 0.6494
vn 0.0359 0.7596 -0.6494
vn -0.9865 -0.1639 -0.0000
vn -0.7293 0.0150 -0.6840
vn -0.7291 0.0154 -0.6842
vn -0.7292 0.0152 -0.6841
vn -0.7293 0.0150 0.6840
vn -0.7291 0.0154 0.6842
vn -0.7292 0.0151 0.6841
vn 0.6702 0.7422 -0.0000
vn -0.2075 0.3904 0.8970
vn -0.2075 0.3904 0.8969
vn -0.0900 0.4378 -0.8946
vn -0.0900 0.4377 -0.8946
vn -0.7996 0.0736 -0.5961
vn -0.7996 0.0736 0.5961
vn 0.9784 0.1358 0.1557
vn 0.7344 0.3651 0.5722
vn 0.7654 0.6279 0.1411
vn 0.8139 0.5810 -0.0000
vn 0.0234 -0.4994 0.8660
vn 0.7344 0.3651 -0.5722
vn 0.7900 -0.1457 0.5956
vn 0.9185 0.3954 -0.0000
vn 0.8406 -0.2410 -0.4851
vn 0.9784 0.1358 -0.1557
vn 0.7900 -0.1457 -0.5956
vn 0.7976 -0.3897 -0.4603
vn 0.7648 -0.6443 -0.0000
vn -0.0468 0.9989 -0.0000
vn 0.0234 -0.4994 -0.8660
vn 0.7599 0.6500 -0.0000
vn -1.0000 -0.0000 -0.0000
vn -0.0000 -0.0000 -1.0000
vn 1.0000 -0.0000 -0.0000
vn -0.0000 -0.0000 1.0000
vn -0.0000 -1.0000 -0.0000
vn -0.0000 1.0000 -0.0000
vn 0.0047 -1.0000 -0.0007
vn 0.0047 -1.0000 -0.0008
vn 0.0047 -1.0000 0.0008
vn 0.0047 -1.0000 0.0007
vn 0.0115 -0.9390 0.3438
vn 0.0115 -0.9390 -0.3438
vn -0.0686 -0.0261 -0.9973
vt 0.409938 0.835094
vt 0.445685 0.836314
vt 0.418997 0.872256
vt 0.590410 0.864315
vt 0.590630 0.901722
vt 0.553768 0.875333
vt 0.377885 0.856878
vt 0.379167 0.811431
vt 0.421069 0.798723
vt 0.567678 0.832636
vt 0.304645 0.660638
vt 0.274052 0.644505
vt 0.295607 0.627341
vt 0.276930 0.913030
vt 0.306954 0.937907
vt 0.273213 0.937374
vt 0.242729 0.898997
vt 0.213826 0.922496
vt 0.223415 0.881675
vt 0.169814 0.691783
vt 0.132197 0.699200
vt 0.148100 0.671169
vt 0.613138 0.832636
vt 0.333162 0.652003
vt 0.090848 0.955045
vt 0.057809 0.934680
vt 0.095474 0.928889
vt 0.254753 0.862003
vt 0.192833 0.666288
vt 0.307224 0.500558
vt 0.301631 0.472198
vt 0.338163 0.476832
vt 0.440973 0.588388
vt 0.410446 0.566479
vt 0.450829 0.550817
vt 0.124998 0.809669
vt 0.076823 0.808458
vt 0.111869 0.774832
vt 0.080818 0.565508
vt 0.051701 0.547901
vt 0.089176 0.527561
vt 0.240128 0.548125
vt 0.207331 0.550155
vt 0.223374 0.512918
vt 0.165996 0.448207
vt 0.121263 0.453088
vt 0.137955 0.432894
vt 0.197086 0.476330
vt 0.150629 0.476816
vt 0.182202 0.512424
vt 0.103447 0.486547
vt 0.132973 0.517796
vt 0.163503 0.554278
vt 0.117866 0.559917
vt 0.099832 0.436191
vt 0.077814 0.463593
vt 0.060158 0.504572
vt 0.130804 0.712263
vt 0.098021 0.738909
vt 0.087125 0.711642
vt 0.178907 0.725384
vt 0.144420 0.747034
vt 0.025000 0.529126
vt 0.189519 0.763867
vt 0.155579 0.786754
vt 0.483544 0.465117
vt 0.456483 0.470171
vt 0.451041 0.444782
vt 0.054865 0.740287
vt 0.066452 0.765691
vt 0.490449 0.499349
vt 0.456910 0.507903
vt 0.025000 0.772065
vt 0.489902 0.534995
vt 0.781250 0.781250
vt 0.750000 0.875000
vt 0.687500 0.687500
vt 0.906250 0.843750
vt 0.937500 0.875000
vt 0.843750 0.781250
vt 0.875000 0.781250
vt 0.875000 0.812500
vt 0.483795 0.581247
vt 0.418928 0.445509
vt 0.419337 0.477770
vt 0.416226 0.522147
vt 0.378296 0.456278
vt 0.374895 0.495006
vt 0.372377 0.540687
vt 0.335336 0.517156
vt 0.172210 0.428294
vt 0.382245 0.428294
vt 0.337803 0.445529
vt 0.206697 0.449530
vt 0.245110 0.463223
vt 0.238270 0.485138
vt 0.636986 0.728580
vt 0.591436 0.723386
vt 0.617161 0.702616
vt 0.567132 0.702616
vt 0.546066 0.728580
vt 0.258278 0.525361
vt 0.232320 0.585612
vt 0.215812 0.628501
vt 0.192047 0.592425
vt 0.170319 0.636818
vt 0.142818 0.597797
vt 0.122172 0.638719
vt 0.098121 0.600255
vt 0.057230 0.592829
vt 0.036573 0.623174
vt 0.025000 0.576401
vt 0.230797 0.837014
vt 0.258719 0.816373
vt 0.228904 0.787759
vt 0.218254 0.747409
vt 0.194416 0.809409
vt 0.193120 0.857554
vt 0.157299 0.831510
vt 0.114652 0.847248
vt 0.103847 0.890498
vt 0.068727 0.863073
vt 0.060990 0.899677
vt 0.750000 0.593750
vt 0.781250 0.656250
vt 0.027275 0.869446
vt 0.937500 0.593750
vt 1.000000 0.687500
vt 0.906250 0.656250
vt 0.025000 0.902622
vt 0.454459 0.660148
vt 0.449658 0.623547
vt 0.490449 0.633392
vt 0.409722 0.611428
vt 0.370861 0.634780
vt 0.370987 0.588850
vt 0.328859 0.611177
vt 0.329656 0.561709
vt 0.292245 0.583155
vt 0.297056 0.537443
vt 0.659344 0.763265
vt 0.672687 0.740787
vt 0.638238 0.795993
vt 0.615938 0.755562
vt 0.590513 0.793734
vt 0.565908 0.755562
vt 0.543075 0.795993
vt 0.522963 0.763265
vt 0.510787 0.740788
vt 0.076087 0.634017
vt 0.103588 0.673038
vt 0.058586 0.664866
vt 0.025424 0.648891
vt 0.088883 0.697396
vt 0.354204 0.709698
vt 0.312869 0.728033
vt 0.316415 0.702616
vt 0.279128 0.727499
vt 0.281492 0.751178
vt 0.149376 0.875984
vt 0.185757 0.903588
vt 0.138823 0.920908
vt 0.173047 0.943004
vt 0.128532 0.953971
vt 0.414140 0.651655
vt 0.452969 0.688359
vt 0.415962 0.687318
vt 0.372012 0.673981
vt 0.309034 0.964498
vt 0.347184 0.958762
vt 0.374327 0.702616
vt 0.334818 0.684409
vt 0.276225 0.509657
vt 0.264604 0.553457
vt 0.263807 0.602925
vt 0.696631 0.771277
vt 0.681578 0.802551
vt 0.716292 0.812764
vt 0.697188 0.849540
vt 0.656153 0.840723
vt 0.725000 0.856671
vt 0.701897 0.891357
vt 0.667930 0.885372
vt 0.627323 0.875333
vt 0.263807 0.570288
vt 0.718750 0.562500
vt 0.718750 0.437500
vt 0.781250 0.500000
vt 0.534125 0.818358
vt 0.235006 0.621541
vt 0.243260 0.600097
vt 0.521822 0.799272
vt 0.511766 0.782908
vt 0.656250 0.375000
vt 0.687500 0.500000
vt 0.593750 0.437500
vt 0.531250 0.500000
vt 0.593750 0.562500
vt 0.531250 0.562500
vt 0.224142 0.643738
vt 0.232471 0.658975
vt 0.525174 0.840723
vt 0.519565 0.863047
vt 0.481231 0.891357
vt 0.499608 0.867456
vt 0.513956 0.885372
vt 0.204576 0.691302
vt 0.167101 0.711642
vt 0.429702 0.759024
vt 0.393240 0.729135
vt 0.432741 0.726179
vt 0.386817 0.769053
vt 0.396675 0.702616
vt 0.347125 0.743121
vt 0.341987 0.785627
vt 0.307034 0.764305
vt 0.269686 0.786189
vt 0.299601 0.807123
vt 1.000000 0.125000
vt 0.937500 0.218750
vt 1.000000 0.218750
vt 0.263807 0.831436
vt 0.339293 0.833054
vt 0.298191 0.857138
vt 0.267124 0.877082
vt 0.339306 0.880761
vt 0.303190 0.900645
vt 0.342025 0.924077
vt 0.383127 0.899993
vt 0.387269 0.941001
vt 0.389177 0.968664
vt 0.937500 0.312500
vt 1.000000 0.406250
vt 1.000000 0.312500
vt 0.425364 0.912952
vt 0.426524 0.946780
vt 0.298286 0.679774
vt 0.510519 0.925569
vt 0.550433 0.916752
vt 0.481826 0.925757
vt 0.466445 0.756519
vt 0.551087 0.954610
vt 0.460022 0.796437
vt 0.591120 0.940610
vt 0.481232 0.837714
vt 0.702491 0.925756
vt 0.723203 0.892847
vt 0.461884 0.918370
vt 0.457742 0.877362
vt 0.672417 0.925569
vt 0.632035 0.954610
vt 0.631382 0.916752
vt 0.812500 0.781250
vt 0.812500 0.718750
vt 0.812500 0.812500
vt 0.875000 0.718750
vt 0.906250 0.250000
vt 0.812500 0.218750
vt 0.812500 0.250000
vt 0.875000 0.156250
vt 0.812500 0.125000
vt 0.906250 0.125000
vt 0.906250 0.468750
vt 0.812500 0.500000
vt 0.906250 0.500000
vt 0.937500 0.406250
vt 0.906250 0.406250
vt 0.906250 0.218750
vt 0.937500 0.125000
vt 0.906250 0.781250
vt 0.781250 0.843750
vt 0.531250 0.312500
vt 0.593750 0.343750
vt 0.531250 0.406250
vt 0.625000 0.468750
vt 0.593750 0.656250
vt 0.259003 0.592435
vt 0.656250 0.625000
vt 0.531250 0.687500
vt 0.625000 0.531250
vt 0.656250 0.500000
vt 1.000000 0.062500
vt 0.812500 0.062500
vt 0.875000 -0.000000
vt 0.875000 0.062500
vt 0.937500 0.062500
vt 1.000000 -0.000000
vt 0.937500 -0.000000
vt 0.875000 0.125000
vt 0.750000 0.000000
vt 0.812500 -0.000000
vt 0.625000 0.062500
vt 0.687500 0.000000
vt 0.687500 0.062500
vt 0.750000 0.125000
vt 0.750000 0.062500
vt 0.687500 0.125000
vt 0.812500 0.406250
vt 0.812500 0.468750
vt 0.812500 0.312500
vt 0.906250 0.312500
vt 0.417263 0.904010
vt 0.414079 0.883661
vt 0.396145 0.897530
vt 0.346387 0.821546
vt 0.366324 0.810734
vt 0.347735 0.797832
vt 0.875000 0.312500
vt 0.254200 0.614582
vt 0.500569 0.802551
vt 0.485260 0.849540
vt 0.812500 0.156250
vt 0.875000 0.218750
vt 0.625000 0.000000
vt 0.625000 0.125000
vt 0.875000 0.406250
vt 0.812500 0.343750
s 1
usemtl Big_Pole
f 1/1/1 16/2/1 15/3/1
f 2/4/2 18/5/2 24/6/2
f 1/1/3 15/3/3 30/7/3
f 1/1/4 30/7/4 36/8/4
f 1/1/5 36/8/5 25/9/5
f 2/4/6 24/6/6 45/10/6
f 3/11/7 21/12/7 51/13/7
f 4/14/8 33/15/8 57/16/8
f 5/17/9 39/18/9 63/19/9
f 6/20/10 42/21/10 69/22/10
f 2/4/11 45/10/11 52/23/11
f 3/11/12 51/13/12 58/24/12
f 4/25/13 57/26/13 64/27/13
f 5/17/14 63/19/14 70/28/14
f 6/20/15 69/22/15 46/29/15
f 7/30/16 75/31/16 90/32/16
f 8/33/17 78/34/17 96/35/17
f 9/36/18 81/37/18 99/38/18
f 10/39/19 84/40/19 102/41/19
f 11/42/20 87/43/20 91/44/20
f 93/45/21 100/46/21 12/47/21
f 92/48/22 103/49/22 93/45/22
f 91/44/23 104/50/23 92/48/23
f 93/45/24 103/49/24 100/46/24
f 103/49/25 101/51/25 100/46/25
f 92/48/26 104/50/26 103/49/26
f 104/50/27 105/52/27 103/49/27
f 103/49/28 105/52/28 101/51/28
f 105/52/29 102/41/29 101/51/29
f 91/44/30 87/43/30 104/50/30
f 87/43/31 86/53/31 104/50/31
f 104/50/32 86/53/32 105/52/32
f 86/53/33 85/54/33 105/52/33
f 105/52/34 85/54/34 102/41/34
f 85/54/35 10/39/35 102/41/35
f 100/46/36 97/55/36 12/47/36
f 101/51/37 106/56/37 100/46/37
f 102/41/38 107/57/38 101/51/38
f 100/46/39 106/56/39 97/55/39
f 106/58/40 98/59/40 97/60/40
f 101/51/41 107/57/41 106/56/41
f 107/61/42 108/62/42 106/58/42
f 106/58/43 108/62/43 98/59/43
f 108/62/44 99/38/44 98/59/44
f 102/41/45 84/40/45 107/57/45
f 84/40/46 83/63/46 107/57/46
f 107/61/47 83/64/47 108/62/47
f 83/64/48 82/65/48 108/62/48
f 108/62/49 82/65/49 99/38/49
f 82/65/50 9/36/50 99/38/50
f 97/66/51 94/67/51 12/68/51
f 98/59/52 109/69/53 97/60/54
f 99/38/55 110/70/55 98/59/55
f 97/66/56 109/71/56 94/67/56
f 109/71/57 95/72/58 94/67/59
f 98/59/52 110/70/60 109/69/53
f 110/70/61 111/73/61 109/69/61
f 109/71/57 111/74/62 95/72/58
f 111/74/63 96/35/63 95/72/63
f 99/38/64 81/37/64 110/70/64
f 183/75/65 110/76/66 81/77/67
f 110/76/68 182/78/68 111/79/68
f 80/80/69 165/81/69 166/82/69
f 111/74/70 79/83/70 96/35/70
f 79/83/71 8/33/71 96/35/71
f 94/67/72 88/84/72 12/68/72
f 95/72/73 112/85/73 94/67/73
f 96/35/74 113/86/74 95/72/74
f 94/67/75 112/85/75 88/84/75
f 112/85/76 89/87/76 88/84/76
f 95/72/77 113/86/77 112/85/77
f 113/86/78 114/88/78 112/85/78
f 112/85/79 114/88/79 89/87/79
f 114/88/80 90/32/80 89/87/80
f 96/35/81 78/34/81 113/86/81
f 78/34/82 77/89/82 113/86/82
f 113/86/83 77/89/83 114/88/83
f 77/89/84 76/90/84 114/88/84
f 114/88/85 76/90/85 90/32/85
f 76/90/86 7/30/86 90/32/86
f 88/91/87 93/45/87 12/47/87
f 89/87/88 115/92/88 88/84/88
f 90/32/89 116/93/89 89/87/89
f 88/91/90 115/94/90 93/45/90
f 115/94/91 92/48/91 93/45/91
f 89/87/92 116/93/92 115/92/92
f 116/95/93 117/96/93 115/94/93
f 115/94/94 117/96/94 92/48/94
f 117/96/95 91/44/95 92/48/95
f 90/32/96 75/31/96 116/93/96
f 75/97/97 74/98/97 116/99/97
f 116/99/98 74/98/98 117/100/98
f 74/98/99 73/101/99 117/100/99
f 117/96/100 73/102/100 91/44/100
f 73/102/101 11/42/101 91/44/101
f 48/103/102 87/43/102 11/42/102
f 47/104/103 118/105/103 48/103/103
f 46/29/104 119/106/104 47/104/104
f 48/103/105 118/105/105 87/43/105
f 118/105/106 86/53/106 87/43/106
f 47/104/107 119/106/107 118/105/107
f 119/106/108 120/107/108 118/105/108
f 118/105/109 120/107/109 86/53/109
f 120/107/110 85/54/110 86/53/110
f 46/29/111 69/22/111 119/106/111
f 69/22/112 68/108/112 119/106/112
f 119/106/113 68/108/113 120/107/113
f 68/108/114 67/109/114 120/107/114
f 120/107/115 67/109/115 85/54/115
f 67/109/116 10/39/116 85/54/116
f 72/110/117 84/40/117 10/39/117
f 71/111/118 121/112/118 72/110/118
f 70/28/119 122/113/119 71/114/119
f 72/110/120 121/112/120 84/40/120
f 121/115/121 83/64/121 84/116/121
f 71/114/122 122/113/122 121/115/122
f 122/113/123 123/117/123 121/115/123
f 121/115/124 123/117/124 83/64/124
f 123/117/125 82/65/125 83/64/125
f 70/28/126 63/19/126 122/113/126
f 63/19/127 62/118/127 122/113/127
f 122/113/128 62/118/128 123/117/128
f 62/118/129 61/119/129 123/117/129
f 123/117/130 61/119/130 82/65/130
f 61/119/131 9/36/131 82/65/131
f 66/120/132 81/37/133 9/36/134
f 65/121/135 124/122/135 66/120/135
f 64/27/136 125/123/136 65/121/136
f 66/120/132 124/122/137 81/37/133
f 124/124/138 181/125/138 81/77/138
f 65/121/139 125/123/139 124/122/139
f 125/123/140 126/126/140 124/122/140
f 126/127/141 181/125/141 124/124/141
f 126/127/142 79/128/142 185/129/142
f 64/27/143 57/26/143 125/123/143
f 57/26/144 56/130/144 125/123/144
f 125/123/145 56/130/145 126/126/145
f 56/131/146 55/132/146 126/133/146
f 126/133/147 55/132/148 79/83/149
f 55/132/148 8/33/150 79/83/149
f 60/134/151 78/34/151 8/33/151
f 59/135/152 127/136/152 60/134/152
f 58/24/153 128/137/153 59/135/153
f 60/134/154 127/136/154 78/34/154
f 127/136/155 77/89/155 78/34/155
f 59/135/156 128/137/156 127/136/156
f 128/137/157 129/138/157 127/136/157
f 127/136/158 129/138/158 77/89/158
f 129/138/159 76/90/159 77/89/159
f 58/24/160 51/13/160 128/137/160
f 51/13/161 50/139/161 128/137/161
f 128/137/162 50/139/162 129/138/162
f 50/139/163 49/140/163 129/138/163
f 129/138/164 49/140/164 76/90/164
f 49/140/165 7/30/165 76/90/165
f 54/141/166 75/97/166 7/142/166
f 53/143/167 130/144/167 54/141/167
f 52/23/168 131/145/168 53/143/168
f 54/141/169 130/144/169 75/97/169
f 130/144/170 74/98/170 75/97/170
f 53/143/171 131/145/171 130/144/171
f 131/145/172 132/146/172 130/144/172
f 130/144/173 132/146/173 74/98/173
f 132/146/174 73/101/174 74/98/174
f 52/23/175 45/10/175 131/145/175
f 45/10/176 44/147/176 131/145/176
f 131/145/177 44/147/177 132/146/177
f 44/147/178 43/148/178 132/146/178
f 132/146/179 43/148/179 73/101/179
f 43/148/180 11/149/180 73/101/180
f 67/109/181 72/110/181 10/39/181
f 68/108/182 133/150/182 67/109/182
f 69/22/183 134/151/183 68/108/183
f 67/109/184 133/150/184 72/110/184
f 133/150/185 71/111/185 72/110/185
f 68/108/186 134/151/186 133/150/186
f 134/151/187 135/152/187 133/150/187
f 133/150/188 135/152/188 71/111/188
f 135/152/189 70/153/189 71/111/189
f 69/22/190 42/21/190 134/151/190
f 42/21/191 41/154/191 134/151/191
f 134/151/192 41/154/192 135/152/192
f 41/155/193 40/156/193 135/157/193
f 135/157/194 40/156/194 70/158/194
f 40/156/195 5/159/195 70/158/195
f 61/119/196 66/120/196 9/36/196
f 62/118/197 136/160/197 61/119/197
f 63/19/198 137/161/198 62/118/198
f 61/119/199 136/160/199 66/120/199
f 136/160/200 65/121/200 66/120/200
f 62/118/201 137/161/201 136/160/201
f 137/161/202 138/162/202 136/160/202
f 136/160/203 138/162/203 65/121/203
f 138/162/204 64/27/204 65/121/204
f 63/19/205 39/18/205 137/161/205
f 39/18/206 38/163/206 137/161/206
f 137/161/207 38/163/207 138/162/207
f 38/163/208 37/164/208 138/162/208
f 138/162/209 37/164/209 64/27/209
f 37/164/210 4/25/210 64/27/210
f 55/132/211 60/134/211 8/33/211
f 56/131/212 139/165/212 55/132/212
f 57/166/213 140/167/213 56/131/213
f 55/132/214 139/165/214 60/134/214
f 139/165/215 59/135/215 60/134/215
f 56/131/216 140/167/216 139/165/216
f 140/167/217 141/168/217 139/165/217
f 139/165/218 141/168/218 59/135/218
f 141/168/219 58/24/219 59/135/219
f 57/16/220 33/15/220 140/169/220
f 33/15/221 32/170/221 140/169/221
f 140/167/222 32/171/222 141/168/222
f 32/171/223 31/172/223 141/168/223
f 141/168/224 31/172/224 58/24/224
f 31/172/225 3/11/225 58/24/225
f 49/140/226 54/173/226 7/30/226
f 50/139/227 142/174/227 49/140/227
f 51/13/228 143/175/228 50/139/228
f 49/176/229 142/177/229 54/141/229
f 142/177/230 53/143/230 54/141/230
f 50/178/231 143/179/231 142/177/231
f 143/179/232 144/180/232 142/177/232
f 142/177/233 144/180/233 53/143/233
f 144/180/234 52/23/234 53/143/234
f 51/181/235 21/182/235 143/179/235
f 21/182/236 20/183/236 143/179/236
f 143/179/237 20/183/237 144/180/237
f 20/183/238 19/184/238 144/180/238
f 144/180/239 19/184/239 52/23/239
f 19/184/240 2/4/240 52/23/240
f 43/185/241 48/103/241 11/42/241
f 194/186/242 197/187/242 23/188/242
f 45/10/243 195/189/243 44/147/243
f 188/190/244 48/103/244 189/191/245
f 192/192/246 191/193/247 43/148/246
f 146/194/248 193/195/248 187/196/248
f 145/197/249 190/198/249 188/199/249
f 46/29/250 196/200/250 147/201/250
f 45/10/251 24/6/251 146/202/251
f 24/6/252 197/203/252 146/202/252
f 146/194/253 197/187/253 193/195/253
f 22/204/254 194/205/254 23/206/254
f 147/201/255 22/207/255 46/29/255
f 22/207/256 6/20/256 46/29/256
f 27/208/257 42/21/257 6/20/257
f 26/209/258 148/210/258 27/211/258
f 25/9/259 149/212/259 26/209/259
f 27/211/260 148/210/260 42/213/260
f 148/210/261 41/155/261 42/213/261
f 26/209/262 149/212/262 148/210/262
f 149/212/263 150/214/263 148/210/263
f 148/210/264 150/214/264 41/155/264
f 150/214/265 40/156/265 41/155/265
f 25/9/266 36/8/266 149/212/266
f 36/8/267 35/215/267 149/212/267
f 149/212/268 35/215/268 150/214/268
f 35/215/269 34/216/269 150/214/269
f 150/214/270 34/216/270 40/156/270
f 34/216/271 5/159/271 40/156/271
f 34/216/272 39/217/272 5/159/272
f 35/215/273 151/218/273 34/216/273
f 220/219/274 171/220/275 170/221/275
f 34/216/276 151/218/276 39/217/276
f 151/218/277 38/222/277 39/217/277
f 35/215/278 152/223/278 151/218/278
f 152/223/279 153/224/279 151/218/279
f 151/218/280 153/224/280 38/222/280
f 153/224/281 37/225/281 38/222/281
f 36/8/282 30/7/282 152/223/282
f 30/7/283 29/226/283 152/223/283
f 152/223/284 29/226/284 153/224/284
f 29/226/285 28/227/285 153/224/285
f 153/224/286 28/227/286 37/225/286
f 28/227/287 4/14/287 37/225/287
f 28/227/288 33/15/288 4/14/288
f 29/226/289 154/228/289 28/227/289
f 30/7/290 155/229/290 29/226/290
f 28/227/291 154/228/291 33/15/291
f 154/228/292 32/170/292 33/15/292
f 29/226/293 155/229/293 154/228/293
f 155/229/294 156/230/294 154/228/294
f 154/228/295 156/230/295 32/170/295
f 156/230/296 31/231/296 32/170/296
f 30/7/297 15/3/297 155/229/297
f 219/232/298 169/233/298 217/234/298
f 155/229/299 14/235/299 156/230/299
f 14/235/300 13/236/300 156/230/300
f 156/230/301 13/236/301 31/231/301
f 13/237/302 3/11/302 31/172/302
f 22/207/303 27/208/303 6/20/303
f 23/206/304 157/238/304 22/204/304
f 24/6/305 158/239/305 23/206/305
f 22/204/306 157/238/306 27/240/306
f 157/241/307 26/209/307 27/211/307
f 23/206/308 158/239/308 157/238/308
f 158/239/309 159/242/309 157/238/309
f 157/241/310 159/243/310 26/209/310
f 159/243/311 25/9/311 26/209/311
f 24/6/312 18/5/312 158/239/312
f 18/5/313 17/244/313 158/239/313
f 158/239/314 17/244/314 159/242/314
f 17/245/315 16/2/315 159/243/315
f 159/243/316 16/2/316 25/9/316
f 16/2/317 1/1/317 25/9/317
f 13/246/318 21/182/318 3/247/318
f 14/235/319 160/248/319 13/236/319
f 15/3/320 161/249/320 14/235/320
f 13/246/321 160/250/321 21/182/321
f 160/250/322 20/183/322 21/182/322
f 14/235/323 161/249/323 160/248/323
f 161/251/324 162/252/324 160/250/324
f 160/250/325 162/252/325 20/183/325
f 162/252/326 19/184/326 20/183/326
f 15/3/327 16/2/327 161/249/327
f 16/2/328 17/245/328 161/249/328
f 161/251/329 17/244/329 162/252/329
f 17/244/330 18/5/330 162/252/330
f 162/252/331 18/5/331 19/184/331
f 18/5/332 2/4/332 19/184/332
f 168/253/333 163/254/333 80/80/333
f 167/255/334 168/253/334 80/80/334
f 163/254/335 164/256/335 80/80/335
f 166/82/336 167/255/336 80/80/336
f 164/256/337 165/81/337 80/80/337
f 165/81/338 182/78/339 166/82/338
f 221/257/340 170/258/340 180/259/340
f 171/260/341 221/261/341 180/262/341
f 217/263/342 172/264/343 218/265/342
f 176/266/344 173/263/344 177/267/344
f 174/257/345 175/220/345 178/268/345
f 172/232/346 173/267/346 176/266/346
f 171/262/347 174/220/347 170/269/347
f 185/129/348 163/254/348 181/125/348
f 183/75/349 163/254/350 168/253/351
f 184/270/352 164/256/353 185/129/354
f 186/271/355 166/82/355 182/78/355
f 184/270/356 111/79/357 182/78/357
f 186/271/358 168/253/359 167/255/359
f 81/77/360 181/125/360 183/75/360
f 185/129/361 79/128/361 184/270/361
f 44/272/362 195/273/362 192/274/362
f 192/274/363 195/273/363 187/196/363
f 192/274/364 187/196/364 145/197/364
f 187/196/365 190/198/365 145/197/365
f 193/195/366 200/275/366 187/196/366
f 188/199/367 190/198/367 196/276/367
f 187/196/368 195/273/368 146/194/368
f 191/277/369 189/191/369 48/103/369
f 190/198/370 193/195/370 147/278/370
f 196/276/371 47/279/371 188/199/371
f 196/276/372 190/198/372 147/278/372
f 193/195/373 194/186/373 147/278/373
f 194/186/374 193/195/374 197/187/374
f 187/196/375 199/280/375 190/198/375
f 193/195/376 199/280/376 198/281/376
f 200/275/377 198/281/377 199/280/377
f 202/269/378 203/282/378 201/219/378
f 204/283/379 207/284/379 203/285/379
f 208/286/380 205/287/380 207/282/380
f 206/285/381 201/288/381 205/286/381
f 207/289/382 201/283/382 203/285/382
f 204/269/383 206/285/383 208/286/383
f 210/283/378 211/290/378 209/291/378
f 212/292/379 215/293/379 211/294/379
f 216/295/380 213/283/380 215/261/380
f 214/294/381 209/290/381 213/296/381
f 215/297/382 209/292/382 211/294/382
f 212/295/383 214/294/383 216/296/383
f 169/263/384 177/298/385 173/299/384
f 178/257/386 170/300/387 174/301/387
f 15/3/388 217/302/388 218/303/388
f 15/3/388 219/304/388 155/229/388
f 155/229/388 217/302/388 14/235/388
f 36/8/389 221/305/389 222/306/389
f 152/223/389 220/307/389 221/305/389
f 36/8/389 220/307/389 35/215/389
f 172/308/390 177/300/390 179/301/390
f 183/75/65 186/271/66 110/76/66
f 110/76/68 186/271/68 182/78/68
f 126/127/141 185/129/141 181/125/141
f 45/10/243 146/202/243 195/189/243
f 189/191/245 145/309/244 188/190/244
f 188/190/244 47/104/244 48/103/244
f 43/148/246 44/147/246 192/192/246
f 192/192/246 145/310/246 191/193/247
f 46/29/250 47/104/250 196/200/250
f 24/6/252 23/206/252 197/203/252
f 22/204/254 147/311/254 194/205/254
f 220/219/274 222/269/274 171/220/275
f 219/232/298 179/266/298 169/233/298
f 165/81/338 184/270/338 182/78/339
f 221/257/340 220/268/340 170/258/340
f 171/260/341 222/312/341 221/261/341
f 180/262/341 178/268/341 171/260/341
f 178/268/341 175/313/341 171/260/341
f 217/263/342 169/299/343 172/264/343
f 172/232/346 169/301/346 173/267/346
f 171/262/347 175/268/347 174/220/347
f 185/129/348 164/256/348 163/254/348
f 183/75/349 181/125/351 163/254/350
f 184/270/352 165/81/354 164/256/353
f 186/271/355 167/255/355 166/82/355
f 184/270/356 79/128/356 111/79/357
f 186/271/358 183/75/359 168/253/359
f 193/195/366 198/281/366 200/275/366
f 48/103/369 43/185/369 191/277/369
f 191/277/369 145/309/369 189/191/369
f 187/196/375 200/275/375 199/280/375
f 193/195/376 190/198/376 199/280/376
f 202/269/378 204/286/378 203/282/378
f 204/283/379 208/291/379 207/284/379
f 208/286/380 206/288/380 205/287/380
f 206/285/381 202/284/381 201/288/381
f 207/289/382 205/261/382 201/283/382
f 204/269/383 202/289/383 206/285/383
f 210/283/378 212/296/378 211/290/378
f 212/292/379 216/314/379 215/293/379
f 216/295/380 214/296/380 213/283/380
f 214/294/381 210/293/381 209/290/381
f 215/297/382 213/315/382 209/292/382
f 212/295/383 210/297/383 214/294/383
f 169/263/384 179/267/384 177/298/385
f 178/257/386 180/259/387 170/300/387
f 15/3/388 14/235/388 217/302/388
f 15/3/388 218/303/388 219/304/388
f 155/229/388 219/304/388 217/302/388
f 36/8/389 152/223/389 221/305/389
f 152/223/389 35/215/389 220/307/389
f 36/8/389 222/306/389 220/307/389
f 179/301/390 219/267/390 172/308/390
f 219/267/390 218/316/390 172/308/390
f 172/308/390 176/317/390 177/300/390
